<svg width="128" height="55" viewBox="0 0 128 55" fill="none" xmlns="http://www.w3.org/2000/svg">
<path d="M22.2461 32.5H21.2717L24.9755 22.3182H25.9698L29.6737 32.5H28.6992L25.5075 23.5263H25.4379L22.2461 32.5ZM22.9471 28.5973H27.9982V29.4325H22.9471V28.5973ZM34.2177 32.6591C33.5349 32.6591 32.94 32.4884 32.4329 32.147C31.9291 31.8056 31.538 31.3383 31.2596 30.745C30.9812 30.1518 30.842 29.4756 30.842 28.7166C30.842 27.951 30.9828 27.2699 31.2646 26.6733C31.5496 26.0767 31.944 25.6094 32.4478 25.2713C32.9516 24.9299 33.5366 24.7592 34.2028 24.7592C34.7132 24.7592 35.1755 24.8587 35.5898 25.0575C36.0041 25.2531 36.3455 25.5298 36.614 25.8878C36.8858 26.2424 37.0565 26.6567 37.1261 27.1307H36.2312C36.1384 26.6998 35.9147 26.3319 35.56 26.027C35.2087 25.7187 34.7612 25.5646 34.2177 25.5646C33.7305 25.5646 33.2996 25.6972 32.9251 25.9624C32.5505 26.2242 32.2572 26.5904 32.0451 27.0611C31.8363 27.5284 31.7319 28.0703 31.7319 28.6868C31.7319 29.3066 31.8346 29.8551 32.0401 30.3324C32.2456 30.8063 32.534 31.1776 32.9052 31.446C33.2797 31.7145 33.7172 31.8487 34.2177 31.8487C34.5558 31.8487 34.864 31.7857 35.1424 31.6598C35.4241 31.5305 35.6594 31.3482 35.8484 31.1129C36.0406 30.8776 36.1699 30.5975 36.2362 30.2727H37.131C37.0647 30.7334 36.9007 31.1444 36.6388 31.5057C36.3803 31.8636 36.0439 32.1454 35.6296 32.3509C35.2186 32.5563 34.748 32.6591 34.2177 32.6591ZM42.0355 24.8636V25.6342H38.3913V24.8636H42.0355ZM39.5298 23.0341H40.4197V30.5064C40.4197 30.8246 40.4744 31.0748 40.5838 31.2571C40.6932 31.4361 40.8357 31.5637 41.0114 31.6399C41.187 31.7128 41.3743 31.7493 41.5732 31.7493C41.6892 31.7493 41.7886 31.7427 41.8714 31.7294C41.9543 31.7128 42.0272 31.6963 42.0902 31.6797L42.2791 32.4801C42.1929 32.5133 42.0869 32.5431 41.9609 32.5696C41.835 32.5994 41.6792 32.6143 41.4936 32.6143C41.1688 32.6143 40.8556 32.5431 40.554 32.4006C40.2557 32.258 40.0104 32.0459 39.8182 31.7642C39.6259 31.4825 39.5298 31.1328 39.5298 30.7152V23.0341ZM44.0552 32.5V24.8636H44.9451V32.5H44.0552ZM44.5076 23.5511C44.3253 23.5511 44.1696 23.4898 44.0403 23.3672C43.911 23.2412 43.8464 23.0904 43.8464 22.9148C43.8464 22.7391 43.911 22.59 44.0403 22.4673C44.1696 22.3414 44.3253 22.2784 44.5076 22.2784C44.6899 22.2784 44.8457 22.3414 44.975 22.4673C45.1042 22.59 45.1689 22.7391 45.1689 22.9148C45.1689 23.0904 45.1042 23.2412 44.975 23.3672C44.8457 23.4898 44.6899 23.5511 44.5076 23.5511ZM53.1967 24.8636L50.4077 32.5H49.4631L46.674 24.8636H47.6335L49.9006 31.3317H49.9702L52.2372 24.8636H53.1967ZM57.742 32.6591C57.0294 32.6591 56.4129 32.4934 55.8926 32.1619C55.3722 31.8272 54.9695 31.3648 54.6845 30.7749C54.4028 30.1816 54.2619 29.4988 54.2619 28.7266C54.2619 27.9576 54.4028 27.2749 54.6845 26.6783C54.9695 26.0784 55.3623 25.6094 55.8627 25.2713C56.3665 24.9299 56.9482 24.7592 57.6078 24.7592C58.0221 24.7592 58.4215 24.8355 58.8059 24.9879C59.1904 25.1371 59.5351 25.3674 59.84 25.679C60.1483 25.9872 60.3919 26.3767 60.5708 26.8473C60.7498 27.3146 60.8393 27.8681 60.8393 28.5078V28.9453H54.8734V28.1648H59.9345C59.9345 27.6742 59.8351 27.2334 59.6362 26.8423C59.4406 26.4479 59.1672 26.1364 58.8159 25.9077C58.4679 25.679 58.0652 25.5646 57.6078 25.5646C57.1239 25.5646 56.698 25.6939 56.3301 25.9524C55.9622 26.2109 55.6738 26.5523 55.465 26.9766C55.2595 27.4008 55.1551 27.8648 55.1518 28.3686V28.8359C55.1518 29.4425 55.2562 29.9728 55.465 30.4268C55.6771 30.8776 55.9771 31.2273 56.3649 31.4759C56.7527 31.7244 57.2117 31.8487 57.742 31.8487C58.1033 31.8487 58.4198 31.7924 58.6916 31.6797C58.9667 31.567 59.197 31.4162 59.3826 31.2273C59.5716 31.035 59.7141 30.8246 59.8102 30.5959L60.6504 30.8693C60.5344 31.1908 60.3438 31.4875 60.0787 31.7592C59.8168 32.031 59.4887 32.2498 59.0943 32.4155C58.7032 32.5779 58.2524 32.6591 57.742 32.6591Z" fill="#1EB036"/>
<rect x="82.25" y="10" width="35" height="35" rx="17.5" fill="#1EB036" fill-opacity="0.14"/>
<path d="M107.689 27.875L104.027 31.5371C102.562 33.002 100.189 33.002 98.7539 31.5371C97.3477 30.1309 97.2598 27.9043 98.5488 26.4395L98.7246 26.2637C98.8711 26.0586 99.1934 26.0293 99.3691 26.2051C99.5742 26.3809 99.6035 26.6738 99.4277 26.8789L99.2812 27.0547C98.3145 28.168 98.373 29.8379 99.3984 30.8633C100.512 31.9766 102.27 31.9766 103.383 30.8633L107.016 27.2305C108.129 26.1172 108.129 24.3594 107.016 23.2461C105.932 22.1621 104.145 22.1621 103.061 23.2461L102.387 23.9199C102.211 24.0957 101.918 24.0957 101.713 23.9199C101.537 23.7148 101.537 23.4219 101.713 23.2461L102.387 22.5723C103.852 21.1074 106.225 21.1074 107.689 22.5723C109.154 24.0371 109.154 26.4102 107.689 27.875ZM91.7812 27.875L95.4434 24.2422C96.9082 22.7773 99.252 22.7773 100.746 24.2422C102.123 25.6191 102.211 27.8457 100.922 29.3398L100.746 29.5156C100.6 29.7207 100.307 29.75 100.102 29.5742C99.8965 29.3984 99.8672 29.1055 100.043 28.9004L100.219 28.7246C101.156 27.6113 101.098 25.9414 100.072 24.916C98.959 23.8027 97.2012 23.8027 96.0879 24.916L92.4551 28.5488C91.3418 29.6621 91.3418 31.4199 92.4551 32.5332C93.5391 33.6172 95.3262 33.6172 96.4102 32.5332L97.084 31.8594C97.2598 31.6836 97.5527 31.6836 97.7578 31.8594C97.9336 32.0352 97.9336 32.3574 97.7578 32.5332L97.084 33.1777C95.6191 34.6426 93.2461 34.6426 91.7812 33.1777C90.3164 31.7129 90.3164 29.3398 91.7812 27.875Z" fill="#C9CED6"/>
</svg>
