<svg width="966" height="81" viewBox="0 0 966 81" fill="none" xmlns="http://www.w3.org/2000/svg">
<path d="M64.9302 31.446C64.7882 29.8835 64.1561 28.669 63.0339 27.8026C61.926 26.9219 60.3422 26.4815 58.2825 26.4815C56.9189 26.4815 55.7825 26.6591 54.8734 27.0142C53.9643 27.3693 53.2825 27.8594 52.8279 28.4844C52.3734 29.0952 52.139 29.7983 52.1248 30.5938C52.0964 31.2472 52.2243 31.8224 52.5083 32.3196C52.8066 32.8168 53.2328 33.2571 53.7868 33.6406C54.3549 34.0099 55.0368 34.3366 55.8322 34.6207C56.6277 34.9048 57.5225 35.1534 58.5169 35.3665L62.2669 36.2188C64.426 36.6875 66.3294 37.3125 67.9771 38.0938C69.639 38.875 71.0311 39.8054 72.1532 40.8849C73.2896 41.9645 74.149 43.2074 74.7314 44.6136C75.3137 46.0199 75.612 47.5966 75.6262 49.3438C75.612 52.0994 74.916 54.4645 73.5382 56.4389C72.1603 58.4134 70.1788 59.9261 67.5936 60.9773C65.0226 62.0284 61.9189 62.554 58.2825 62.554C54.6319 62.554 51.4501 62.0071 48.737 60.9134C46.024 59.8196 43.9146 58.1577 42.4089 55.9276C40.9032 53.6974 40.1291 50.8778 40.0865 47.4688H50.1859C50.2711 48.875 50.6476 50.0469 51.3152 50.9844C51.9828 51.9219 52.899 52.6321 54.0637 53.1151C55.2427 53.598 56.6064 53.8395 58.1547 53.8395C59.5751 53.8395 60.7825 53.6477 61.7768 53.2642C62.7853 52.8807 63.5595 52.348 64.0993 51.6662C64.639 50.9844 64.916 50.2031 64.9302 49.3224C64.916 48.4986 64.6603 47.7955 64.1632 47.2131C63.666 46.6165 62.899 46.1051 61.862 45.679C60.8393 45.2386 59.5325 44.8338 57.9416 44.4645L53.3819 43.3991C49.6035 42.5327 46.6277 41.1335 44.4544 39.2017C42.2811 37.2557 41.2015 34.6278 41.2157 31.3182C41.2015 28.6193 41.926 26.2543 43.389 24.223C44.8521 22.1918 46.8762 20.608 49.4615 19.4716C52.0467 18.3352 54.9941 17.767 58.3038 17.767C61.6845 17.767 64.6177 18.3423 67.1035 19.4929C69.6035 20.6293 71.5424 22.2273 72.9203 24.2869C74.2981 26.3466 75.0012 28.733 75.0297 31.446H64.9302ZM91.372 43.3352V62H80.9529V18.3636H91.0311V35.2812H91.3933C92.1319 33.2642 93.3393 31.6875 95.0154 30.5511C96.7058 29.4148 98.7726 28.8466 101.216 28.8466C103.517 28.8466 105.52 29.358 107.224 30.3807C108.929 31.3892 110.25 32.8168 111.187 34.6634C112.139 36.5099 112.608 38.669 112.594 41.1406V62H102.175V43.1861C102.189 41.3679 101.734 39.9474 100.811 38.9247C99.8876 37.902 98.5879 37.3906 96.9118 37.3906C95.818 37.3906 94.8521 37.6321 94.014 38.1151C93.1902 38.5838 92.5439 39.2585 92.0751 40.1392C91.6206 41.0199 91.3862 42.0852 91.372 43.3352ZM134.374 62.6179C130.937 62.6179 127.982 61.9148 125.511 60.5085C123.053 59.0881 121.157 57.1136 119.822 54.5852C118.501 52.0426 117.84 49.0952 117.84 45.7429C117.84 42.3764 118.501 39.429 119.822 36.9006C121.157 34.358 123.053 32.3835 125.511 30.9773C127.982 29.5568 130.937 28.8466 134.374 28.8466C137.812 28.8466 140.759 29.5568 143.217 30.9773C145.688 32.3835 147.585 34.358 148.906 36.9006C150.241 39.429 150.909 42.3764 150.909 45.7429C150.909 49.0952 150.241 52.0426 148.906 54.5852C147.585 57.1136 145.688 59.0881 143.217 60.5085C140.759 61.9148 137.812 62.6179 134.374 62.6179ZM134.438 54.7557C135.688 54.7557 136.747 54.3722 137.613 53.6051C138.48 52.8381 139.14 51.7727 139.595 50.4091C140.063 49.0455 140.298 47.4687 140.298 45.679C140.298 43.8608 140.063 42.2699 139.595 40.9062C139.14 39.5426 138.48 38.4773 137.613 37.7102C136.747 36.9432 135.688 36.5597 134.438 36.5597C133.146 36.5597 132.052 36.9432 131.157 37.7102C130.276 38.4773 129.602 39.5426 129.133 40.9062C128.678 42.2699 128.451 43.8608 128.451 45.679C128.451 47.4687 128.678 49.0455 129.133 50.4091C129.602 51.7727 130.276 52.8381 131.157 53.6051C132.052 54.3722 133.146 54.7557 134.438 54.7557ZM156.246 62V29.2727H166.367V35.2386H166.708C167.304 33.0795 168.277 31.4744 169.627 30.4233C170.976 29.358 172.546 28.8253 174.335 28.8253C174.818 28.8253 175.316 28.8608 175.827 28.9318C176.338 28.9886 176.814 29.081 177.254 29.2088V38.2642C176.757 38.0937 176.104 37.9588 175.294 37.8594C174.499 37.7599 173.789 37.7102 173.164 37.7102C171.928 37.7102 170.813 37.9872 169.818 38.5412C168.838 39.081 168.064 39.8409 167.496 40.821C166.942 41.7869 166.665 42.9233 166.665 44.2301V62H156.246ZM201.496 29.2727V36.9432H180.85V29.2727H201.496ZM185.175 21.4318H195.594V51.7088C195.594 52.348 195.694 52.8665 195.893 53.2642C196.106 53.6477 196.411 53.9247 196.809 54.0952C197.206 54.2514 197.682 54.3295 198.236 54.3295C198.634 54.3295 199.053 54.294 199.493 54.223C199.948 54.1378 200.289 54.0668 200.516 54.0099L202.093 61.5312C201.596 61.6733 200.893 61.8509 199.983 62.0639C199.089 62.277 198.016 62.4119 196.766 62.4688C194.323 62.5824 192.228 62.2983 190.481 61.6165C188.748 60.9205 187.42 59.8409 186.496 58.3778C185.587 56.9148 185.147 55.0753 185.175 52.8594V21.4318ZM221.759 62.6179C218.336 62.6179 215.381 61.9432 212.895 60.5938C210.424 59.2301 208.52 57.2912 207.185 54.777C205.864 52.2486 205.204 49.2443 205.204 45.7642C205.204 42.3835 205.871 39.429 207.206 36.9006C208.542 34.358 210.424 32.3835 212.853 30.9773C215.282 29.5568 218.144 28.8466 221.439 28.8466C223.769 28.8466 225.9 29.2088 227.831 29.9332C229.763 30.6577 231.432 31.7301 232.839 33.1506C234.245 34.571 235.339 36.3253 236.12 38.4134C236.901 40.4872 237.292 42.8665 237.292 45.5511V48.1506H208.847V42.0994H227.597C227.583 40.9915 227.32 40.0043 226.809 39.1378C226.297 38.2713 225.594 37.5966 224.699 37.1136C223.819 36.6165 222.803 36.3679 221.653 36.3679C220.488 36.3679 219.444 36.6307 218.52 37.1562C217.597 37.6676 216.866 38.3707 216.326 39.2656C215.786 40.1463 215.502 41.1477 215.474 42.2699V48.4276C215.474 49.7628 215.736 50.9347 216.262 51.9432C216.787 52.9375 217.533 53.7116 218.499 54.2656C219.465 54.8196 220.616 55.0966 221.951 55.0966C222.874 55.0966 223.712 54.9687 224.465 54.7131C225.218 54.4574 225.864 54.081 226.404 53.5838C226.944 53.0866 227.349 52.4759 227.618 51.7514L237.185 52.0284C236.787 54.1733 235.914 56.0412 234.564 57.6321C233.229 59.2088 231.475 60.4375 229.302 61.3182C227.128 62.1847 224.614 62.6179 221.759 62.6179ZM253.032 43.3352V62H242.613V29.2727H252.521V35.2812H252.883C253.607 33.2784 254.843 31.7088 256.59 30.5724C258.338 29.4219 260.419 28.8466 262.833 28.8466C265.134 28.8466 267.13 29.3651 268.82 30.402C270.525 31.4247 271.846 32.8594 272.784 34.706C273.735 36.5384 274.204 38.6832 274.19 41.1406V62H263.771V43.1861C263.785 41.3679 263.323 39.9474 262.386 38.9247C261.463 37.902 260.177 37.3906 258.529 37.3906C257.436 37.3906 256.47 37.6321 255.632 38.1151C254.808 38.5838 254.169 39.2585 253.714 40.1392C253.274 41.0199 253.046 42.0852 253.032 43.3352ZM291.358 18.3636H303.14L312.366 36.6236H312.75L321.976 18.3636H333.758L317.8 47.4261V62H307.317V47.4261L291.358 18.3636ZM345.898 62.6179C342.46 62.6179 339.506 61.9148 337.034 60.5085C334.577 59.0881 332.681 57.1136 331.345 54.5852C330.024 52.0426 329.364 49.0952 329.364 45.7429C329.364 42.3764 330.024 39.429 331.345 36.9006C332.681 34.358 334.577 32.3835 337.034 30.9773C339.506 29.5568 342.46 28.8466 345.898 28.8466C349.335 28.8466 352.283 29.5568 354.74 30.9773C357.212 32.3835 359.108 34.358 360.429 36.9006C361.764 39.429 362.432 42.3764 362.432 45.7429C362.432 49.0952 361.764 52.0426 360.429 54.5852C359.108 57.1136 357.212 59.0881 354.74 60.5085C352.283 61.9148 349.335 62.6179 345.898 62.6179ZM345.962 54.7557C347.212 54.7557 348.27 54.3722 349.137 53.6051C350.003 52.8381 350.664 51.7727 351.118 50.4091C351.587 49.0455 351.821 47.4687 351.821 45.679C351.821 43.8608 351.587 42.2699 351.118 40.9062C350.664 39.5426 350.003 38.4773 349.137 37.7102C348.27 36.9432 347.212 36.5597 345.962 36.5597C344.669 36.5597 343.575 36.9432 342.681 37.7102C341.8 38.4773 341.125 39.5426 340.656 40.9062C340.202 42.2699 339.975 43.8608 339.975 45.679C339.975 47.4687 340.202 49.0455 340.656 50.4091C341.125 51.7727 341.8 52.8381 342.681 53.6051C343.575 54.3722 344.669 54.7557 345.962 54.7557ZM388.884 47.8736V29.2727H399.282V62H389.353V55.9062H389.012C388.288 57.9091 387.052 59.5 385.305 60.679C383.572 61.8437 381.477 62.4261 379.019 62.4261C376.789 62.4261 374.829 61.9148 373.139 60.892C371.448 59.8693 370.134 58.4418 369.197 56.6094C368.259 54.7628 367.784 52.6037 367.769 50.1321V29.2727H378.188V48.0866C378.203 49.8622 378.671 51.2614 379.595 52.2841C380.518 53.3068 381.775 53.8182 383.366 53.8182C384.403 53.8182 385.333 53.5909 386.157 53.1364C386.995 52.6676 387.656 51.9929 388.139 51.1122C388.636 50.2173 388.884 49.1378 388.884 47.8736ZM405.914 62V29.2727H416.035V35.2386H416.376C416.972 33.0795 417.945 31.4744 419.295 30.4233C420.644 29.358 422.214 28.8253 424.003 28.8253C424.486 28.8253 424.983 28.8608 425.495 28.9318C426.006 28.9886 426.482 29.081 426.922 29.2088V38.2642C426.425 38.0937 425.772 37.9588 424.962 37.8594C424.167 37.7599 423.456 37.7102 422.831 37.7102C421.596 37.7102 420.481 37.9872 419.486 38.5412C418.506 39.081 417.732 39.8409 417.164 40.821C416.61 41.7869 416.333 42.9233 416.333 44.2301V62H405.914ZM444.058 62V18.3636H454.605V53.4347H472.759V62H444.058ZM493.496 62.6179C490.058 62.6179 487.104 61.9148 484.632 60.5085C482.175 59.0881 480.278 57.1136 478.943 54.5852C477.622 52.0426 476.961 49.0952 476.961 45.7429C476.961 42.3764 477.622 39.429 478.943 36.9006C480.278 34.358 482.175 32.3835 484.632 30.9773C487.104 29.5568 490.058 28.8466 493.496 28.8466C496.933 28.8466 499.881 29.5568 502.338 30.9773C504.809 32.3835 506.706 34.358 508.027 36.9006C509.362 39.429 510.03 42.3764 510.03 45.7429C510.03 49.0952 509.362 52.0426 508.027 54.5852C506.706 57.1136 504.809 59.0881 502.338 60.5085C499.881 61.9148 496.933 62.6179 493.496 62.6179ZM493.559 54.7557C494.809 54.7557 495.868 54.3722 496.734 53.6051C497.601 52.8381 498.261 51.7727 498.716 50.4091C499.184 49.0455 499.419 47.4687 499.419 45.679C499.419 43.8608 499.184 42.2699 498.716 40.9062C498.261 39.5426 497.601 38.4773 496.734 37.7102C495.868 36.9432 494.809 36.5597 493.559 36.5597C492.267 36.5597 491.173 36.9432 490.278 37.7102C489.398 38.4773 488.723 39.5426 488.254 40.9062C487.8 42.2699 487.572 43.8608 487.572 45.679C487.572 47.4687 487.8 49.0455 488.254 50.4091C488.723 51.7727 489.398 52.8381 490.278 53.6051C491.173 54.3722 492.267 54.7557 493.559 54.7557ZM530.644 62.6179C527.206 62.6179 524.252 61.9148 521.78 60.5085C519.323 59.0881 517.427 57.1136 516.091 54.5852C514.77 52.0426 514.11 49.0952 514.11 45.7429C514.11 42.3764 514.77 39.429 516.091 36.9006C517.427 34.358 519.323 32.3835 521.78 30.9773C524.252 29.5568 527.206 28.8466 530.644 28.8466C534.081 28.8466 537.029 29.5568 539.486 30.9773C541.958 32.3835 543.854 34.358 545.175 36.9006C546.51 39.429 547.178 42.3764 547.178 45.7429C547.178 49.0952 546.51 52.0426 545.175 54.5852C543.854 57.1136 541.958 59.0881 539.486 60.5085C537.029 61.9148 534.081 62.6179 530.644 62.6179ZM530.708 54.7557C531.958 54.7557 533.016 54.3722 533.883 53.6051C534.749 52.8381 535.41 51.7727 535.864 50.4091C536.333 49.0455 536.567 47.4687 536.567 45.679C536.567 43.8608 536.333 42.2699 535.864 40.9062C535.41 39.5426 534.749 38.4773 533.883 37.7102C533.016 36.9432 531.958 36.5597 530.708 36.5597C529.415 36.5597 528.322 36.9432 527.427 37.7102C526.546 38.4773 525.871 39.5426 525.403 40.9062C524.948 42.2699 524.721 43.8608 524.721 45.679C524.721 47.4687 524.948 49.0455 525.403 50.4091C525.871 51.7727 526.546 52.8381 527.427 53.6051C528.322 54.3722 529.415 54.7557 530.708 54.7557ZM567.792 62.6179C564.355 62.6179 561.4 61.9148 558.929 60.5085C556.471 59.0881 554.575 57.1136 553.24 54.5852C551.919 52.0426 551.258 49.0952 551.258 45.7429C551.258 42.3764 551.919 39.429 553.24 36.9006C554.575 34.358 556.471 32.3835 558.929 30.9773C561.4 29.5568 564.355 28.8466 567.792 28.8466C571.23 28.8466 574.177 29.5568 576.635 30.9773C579.106 32.3835 581.003 34.358 582.324 36.9006C583.659 39.429 584.327 42.3764 584.327 45.7429C584.327 49.0952 583.659 52.0426 582.324 54.5852C581.003 57.1136 579.106 59.0881 576.635 60.5085C574.177 61.9148 571.23 62.6179 567.792 62.6179ZM567.856 54.7557C569.106 54.7557 570.165 54.3722 571.031 53.6051C571.898 52.8381 572.558 51.7727 573.013 50.4091C573.481 49.0455 573.716 47.4687 573.716 45.679C573.716 43.8608 573.481 42.2699 573.013 40.9062C572.558 39.5426 571.898 38.4773 571.031 37.7102C570.165 36.9432 569.106 36.5597 567.856 36.5597C566.564 36.5597 565.47 36.9432 564.575 37.7102C563.694 38.4773 563.02 39.5426 562.551 40.9062C562.096 42.2699 561.869 43.8608 561.869 45.679C561.869 47.4687 562.096 49.0455 562.551 50.4091C563.02 51.7727 563.694 52.8381 564.575 53.6051C565.47 54.3722 566.564 54.7557 567.856 54.7557ZM604.941 62.6179C601.503 62.6179 598.549 61.9148 596.077 60.5085C593.62 59.0881 591.724 57.1136 590.388 54.5852C589.067 52.0426 588.407 49.0952 588.407 45.7429C588.407 42.3764 589.067 39.429 590.388 36.9006C591.724 34.358 593.62 32.3835 596.077 30.9773C598.549 29.5568 601.503 28.8466 604.941 28.8466C608.378 28.8466 611.326 29.5568 613.783 30.9773C616.255 32.3835 618.151 34.358 619.472 36.9006C620.807 39.429 621.475 42.3764 621.475 45.7429C621.475 49.0952 620.807 52.0426 619.472 54.5852C618.151 57.1136 616.255 59.0881 613.783 60.5085C611.326 61.9148 608.378 62.6179 604.941 62.6179ZM605.005 54.7557C606.255 54.7557 607.313 54.3722 608.18 53.6051C609.046 52.8381 609.706 51.7727 610.161 50.4091C610.63 49.0455 610.864 47.4687 610.864 45.679C610.864 43.8608 610.63 42.2699 610.161 40.9062C609.706 39.5426 609.046 38.4773 608.18 37.7102C607.313 36.9432 606.255 36.5597 605.005 36.5597C603.712 36.5597 602.618 36.9432 601.724 37.7102C600.843 38.4773 600.168 39.5426 599.699 40.9062C599.245 42.2699 599.018 43.8608 599.018 45.679C599.018 47.4687 599.245 49.0455 599.699 50.4091C600.168 51.7727 600.843 52.8381 601.724 53.6051C602.618 54.3722 603.712 54.7557 605.005 54.7557ZM637.231 43.3352V62H626.812V29.2727H636.72V35.2812H637.082C637.807 33.2784 639.042 31.7088 640.79 30.5724C642.537 29.4219 644.618 28.8466 647.032 28.8466C649.334 28.8466 651.329 29.3651 653.02 30.402C654.724 31.4247 656.045 32.8594 656.983 34.706C657.934 36.5384 658.403 38.6832 658.389 41.1406V62H647.97V43.1861C647.984 41.3679 647.523 39.9474 646.585 38.9247C645.662 37.902 644.376 37.3906 642.729 37.3906C641.635 37.3906 640.669 37.6321 639.831 38.1151C639.007 38.5838 638.368 39.2585 637.913 40.1392C637.473 41.0199 637.246 42.0852 637.231 43.3352ZM680.095 74.9545C676.985 74.9545 674.321 74.5213 672.105 73.6548C669.889 72.7884 668.149 71.6023 666.885 70.0966C665.621 68.5909 664.861 66.8864 664.605 64.983L674.47 64.429C674.655 65.0966 674.996 65.679 675.493 66.1761C676.004 66.6733 676.665 67.0568 677.475 67.3267C678.298 67.5966 679.264 67.7315 680.372 67.7315C682.119 67.7315 683.561 67.3054 684.698 66.4531C685.848 65.6151 686.423 64.1449 686.423 62.0426V56.2898H686.061C685.649 57.2983 685.024 58.2003 684.186 58.9957C683.348 59.7912 682.304 60.4162 681.054 60.8707C679.818 61.3253 678.398 61.5526 676.793 61.5526C674.406 61.5526 672.219 60.9986 670.23 59.8906C668.256 58.7685 666.672 57.0355 665.479 54.6918C664.3 52.3338 663.71 49.3011 663.71 45.5938C663.71 41.7727 664.321 38.6264 665.543 36.1548C666.764 33.669 668.362 31.8295 670.337 30.6364C672.325 29.4432 674.463 28.8466 676.75 28.8466C678.469 28.8466 679.939 29.1449 681.161 29.7415C682.396 30.3239 683.412 31.0767 684.208 32C685.003 32.9233 685.607 33.8821 686.019 34.8764H686.317V29.2727H696.693V62.1278C696.693 64.8977 695.997 67.2344 694.605 69.1378C693.213 71.0412 691.267 72.483 688.767 73.4631C686.267 74.4574 683.377 74.9545 680.095 74.9545ZM680.415 53.9673C681.679 53.9673 682.759 53.6335 683.654 52.9659C684.548 52.2983 685.237 51.3395 685.72 50.0895C686.203 48.8395 686.445 47.3409 686.445 45.5938C686.445 43.8182 686.203 42.2912 685.72 41.0128C685.252 39.7202 684.563 38.7259 683.654 38.0298C682.759 37.3338 681.679 36.9858 680.415 36.9858C679.122 36.9858 678.029 37.3409 677.134 38.0511C676.239 38.7614 675.557 39.7628 675.088 41.0554C674.634 42.3338 674.406 43.8466 674.406 45.5938C674.406 47.3409 674.641 48.8395 675.11 50.0895C675.578 51.3395 676.253 52.2983 677.134 52.9659C678.029 53.6335 679.122 53.9673 680.415 53.9673ZM716.226 62V18.3636H726.773V53.4347H744.927V62H716.226ZM750.387 62V29.2727H760.806V62H750.387ZM755.607 25.4588C754.144 25.4588 752.887 24.9759 751.835 24.0099C750.784 23.0298 750.259 21.8509 750.259 20.473C750.259 19.1094 750.784 17.9446 751.835 16.9787C752.887 15.9986 754.144 15.5085 755.607 15.5085C757.084 15.5085 758.341 15.9986 759.378 16.9787C760.429 17.9446 760.955 19.1094 760.955 20.473C760.955 21.8509 760.429 23.0298 759.378 24.0099C758.341 24.9759 757.084 25.4588 755.607 25.4588ZM777.856 43.3352V62H767.437V29.2727H777.345V35.2812H777.707C778.432 33.2784 779.667 31.7088 781.415 30.5724C783.162 29.4219 785.243 28.8466 787.657 28.8466C789.959 28.8466 791.954 29.3651 793.645 30.402C795.349 31.4247 796.67 32.8594 797.608 34.706C798.559 36.5384 799.028 38.6832 799.014 41.1406V62H788.595V43.1861C788.609 41.3679 788.148 39.9474 787.21 38.9247C786.287 37.902 785.001 37.3906 783.354 37.3906C782.26 37.3906 781.294 37.6321 780.456 38.1151C779.632 38.5838 778.993 39.2585 778.538 40.1392C778.098 41.0199 777.871 42.0852 777.856 43.3352ZM814.861 53.4134L814.904 40.9915H816.352L825.557 29.2727H837.361L823.682 46.0625H820.933L814.861 53.4134ZM805.465 62V18.3636H815.884V62H805.465ZM825.791 62L817.226 48.4062L824.087 41.0128L837.83 62H825.791ZM869.662 39.2656L860.095 39.5213C859.996 38.8395 859.726 38.2358 859.286 37.7102C858.845 37.1705 858.27 36.7514 857.56 36.4531C856.864 36.1406 856.054 35.9844 855.131 35.9844C853.923 35.9844 852.894 36.2259 852.041 36.7088C851.203 37.1918 850.791 37.8452 850.806 38.669C850.791 39.3082 851.047 39.8622 851.573 40.331C852.112 40.7997 853.071 41.1761 854.449 41.4602L860.756 42.6534C864.023 43.2784 866.452 44.3153 868.043 45.7642C869.648 47.2131 870.458 49.1307 870.472 51.517C870.458 53.7614 869.79 55.7145 868.469 57.3764C867.162 59.0384 865.372 60.331 863.1 61.2543C860.827 62.1634 858.227 62.6179 855.301 62.6179C850.628 62.6179 846.942 61.6591 844.243 59.7415C841.558 57.8097 840.024 55.2244 839.641 51.9858L849.932 51.7301C850.159 52.9233 850.749 53.8324 851.7 54.4574C852.652 55.0824 853.867 55.3949 855.344 55.3949C856.679 55.3949 857.766 55.1463 858.604 54.6491C859.442 54.152 859.868 53.4915 859.882 52.6676C859.868 51.929 859.541 51.3395 858.902 50.8991C858.263 50.4446 857.262 50.0895 855.898 49.8338L850.188 48.7472C846.906 48.1506 844.463 47.0497 842.858 45.4446C841.253 43.8253 840.458 41.7656 840.472 39.2656C840.458 37.0781 841.04 35.2102 842.219 33.6619C843.398 32.0994 845.074 30.9063 847.247 30.0824C849.421 29.2585 851.985 28.8466 854.939 28.8466C859.371 28.8466 862.865 29.777 865.422 31.6378C867.979 33.4844 869.392 36.027 869.662 39.2656ZM894.351 62.6179C892.817 62.6179 891.503 62.0781 890.41 60.9986C889.33 59.919 888.797 58.6122 888.812 57.0781C888.797 55.5724 889.33 54.2869 890.41 53.2216C891.503 52.142 892.817 51.6023 894.351 51.6023C895.8 51.6023 897.079 52.142 898.187 53.2216C899.309 54.2869 899.877 55.5724 899.891 57.0781C899.877 58.1009 899.607 59.0312 899.081 59.8693C898.57 60.7074 897.895 61.375 897.057 61.8722C896.233 62.3693 895.331 62.6179 894.351 62.6179ZM894.351 40.1605C892.817 40.1605 891.503 39.6278 890.41 38.5625C889.33 37.483 888.797 36.169 888.812 34.6207C888.797 33.1151 889.33 31.8295 890.41 30.7642C891.503 29.6847 892.817 29.1449 894.351 29.1449C895.8 29.1449 897.079 29.6847 898.187 30.7642C899.309 31.8295 899.877 33.1151 899.891 34.6207C899.877 35.6435 899.607 36.5739 899.081 37.4119C898.57 38.25 897.895 38.9176 897.057 39.4148C896.233 39.9119 895.331 40.1605 894.351 40.1605ZM923.584 44.8267C923.584 50.0824 922.874 54.9261 921.454 59.358C920.033 63.7756 917.817 67.8807 914.806 71.6733H904.706C905.857 70.267 906.915 68.5554 907.881 66.5384C908.861 64.5213 909.706 62.3125 910.417 59.9119C911.141 57.5114 911.702 55.0256 912.1 52.4545C912.512 49.8835 912.718 47.3409 912.718 44.8267C912.718 41.4602 912.37 38.0724 911.674 34.6634C910.978 31.2401 910.026 28.0724 908.819 25.1605C907.611 22.2344 906.241 19.8338 904.706 17.9588H914.806C917.817 21.7514 920.033 25.8636 921.454 30.2955C922.874 34.7131 923.584 39.5568 923.584 44.8267Z" fill="url(#paint0_linear_104_1260)"/>
<defs>
<linearGradient id="paint0_linear_104_1260" x1="37.5676" y1="63.9999" x2="935.783" y2="49.5809" gradientUnits="userSpaceOnUse">
<stop stop-color="#144EE3"/>
<stop offset="0.1875" stop-color="#EB568E"/>
<stop offset="0.640625" stop-color="#A353AA"/>
<stop offset="1" stop-color="#144EE3"/>
</linearGradient>
</defs>
</svg>
