<svg width="389" height="28" viewBox="0 0 389 28" fill="none" xmlns="http://www.w3.org/2000/svg">
<path d="M14.5 14.375C14.5 16.5723 13.3281 18.5645 11.4531 19.6777C9.54883 20.7617 7.23438 20.7617 5.35938 19.6777C3.45508 18.5645 2.3125 16.5723 2.3125 14.375C2.3125 12.207 3.45508 10.2148 5.35938 9.10156C7.23438 8.01758 9.54883 8.01758 11.4531 9.10156C13.3281 10.2148 14.5 12.207 14.5 14.375ZM0.90625 14.375C0.90625 17.0703 2.3125 19.5312 4.65625 20.8789C6.9707 22.2266 9.8125 22.2266 12.1562 20.8789C14.4707 19.5312 15.9062 17.0703 15.9062 14.375C15.9062 11.709 14.4707 9.24805 12.1562 7.90039C9.8125 6.55273 6.9707 6.55273 4.65625 7.90039C2.3125 9.24805 0.90625 11.709 0.90625 14.375ZM7.70312 10.3906V14.375C7.70312 14.6094 7.82031 14.8438 7.99609 14.9609L10.8086 16.8359C11.1309 17.0703 11.5703 16.9824 11.8047 16.6602C12.0098 16.3379 11.9219 15.8984 11.5996 15.6641L9.10938 14.0234V10.3906C9.10938 10.0098 8.78711 9.6875 8.40625 9.6875C7.99609 9.6875 7.70312 10.0098 7.70312 10.3906Z" fill="#C9CED6"/>
<path d="M26.8544 19.5V8.59091H29.1609V13.092H33.843V8.59091H36.1442V19.5H33.843V14.9936H29.1609V19.5H26.8544ZM38.0032 19.5V11.3182H40.2724V19.5H38.0032ZM39.1431 10.2635C38.8058 10.2635 38.5163 10.1516 38.2749 9.92791C38.0369 9.70064 37.918 9.42898 37.918 9.11293C37.918 8.80043 38.0369 8.53232 38.2749 8.30859C38.5163 8.08132 38.8058 7.96768 39.1431 7.96768C39.4805 7.96768 39.7681 8.08132 40.006 8.30859C40.2475 8.53232 40.3683 8.80043 40.3683 9.11293C40.3683 9.42898 40.2475 9.70064 40.006 9.92791C39.7681 10.1516 39.4805 10.2635 39.1431 10.2635ZM48.8976 13.6513L46.8202 13.7791C46.7847 13.6016 46.7084 13.4418 46.5912 13.2997C46.474 13.1541 46.3195 13.0387 46.1278 12.9535C45.9395 12.8647 45.714 12.8203 45.4513 12.8203C45.0997 12.8203 44.8032 12.8949 44.5617 13.044C44.3202 13.1896 44.1995 13.3849 44.1995 13.63C44.1995 13.8253 44.2776 13.9904 44.4339 14.1254C44.5901 14.2603 44.8582 14.3686 45.2382 14.4503L46.719 14.7486C47.5145 14.9119 48.1075 15.1747 48.4981 15.5369C48.8888 15.8991 49.0841 16.375 49.0841 16.9645C49.0841 17.5007 48.926 17.9712 48.61 18.3761C48.2975 18.7809 47.8678 19.0969 47.3209 19.3242C46.7776 19.5479 46.1508 19.6598 45.4406 19.6598C44.3575 19.6598 43.4946 19.4343 42.8518 18.9833C42.2126 18.5288 41.838 17.9109 41.7279 17.1296L43.9598 17.0124C44.0273 17.3427 44.1906 17.5948 44.4498 17.7688C44.7091 17.9393 45.0411 18.0245 45.4459 18.0245C45.8437 18.0245 46.1633 17.9482 46.4047 17.7955C46.6498 17.6392 46.7741 17.4386 46.7776 17.1935C46.7741 16.9876 46.6871 16.8189 46.5166 16.6875C46.3461 16.5526 46.0834 16.4496 45.7282 16.3786L44.3113 16.0962C43.5123 15.9364 42.9175 15.6594 42.5269 15.2653C42.1398 14.8711 41.9463 14.3686 41.9463 13.7578C41.9463 13.2322 42.0883 12.7795 42.3724 12.3995C42.6601 12.0195 43.0631 11.7266 43.5816 11.5206C44.1036 11.3146 44.7144 11.2116 45.414 11.2116C46.4474 11.2116 47.2606 11.43 47.8536 11.8668C48.4502 12.3036 48.7982 12.8984 48.8976 13.6513ZM54.8649 11.3182V13.0227H49.9377V11.3182H54.8649ZM51.0563 9.35795H53.3255V16.9858C53.3255 17.1953 53.3574 17.3587 53.4213 17.4759C53.4853 17.5895 53.574 17.6694 53.6877 17.7156C53.8049 17.7617 53.9398 17.7848 54.0925 17.7848C54.199 17.7848 54.3056 17.7759 54.4121 17.7582C54.5186 17.7369 54.6003 17.7209 54.6571 17.7102L55.014 19.3988C54.9004 19.4343 54.7406 19.4751 54.5346 19.5213C54.3287 19.571 54.0783 19.6012 53.7836 19.6119C53.2367 19.6332 52.7573 19.5604 52.3453 19.3935C51.937 19.2266 51.6191 18.9673 51.3919 18.6158C51.1646 18.2642 51.0527 17.8203 51.0563 17.2841V9.35795ZM59.9519 19.6598C59.1245 19.6598 58.4089 19.484 57.8052 19.1325C57.2051 18.7773 56.7417 18.2837 56.415 17.6516C56.0882 17.016 55.9249 16.2791 55.9249 15.4411C55.9249 14.5959 56.0882 13.8572 56.415 13.2251C56.7417 12.5895 57.2051 12.0959 57.8052 11.7443C58.4089 11.3892 59.1245 11.2116 59.9519 11.2116C60.7793 11.2116 61.4931 11.3892 62.0932 11.7443C62.6969 12.0959 63.1621 12.5895 63.4888 13.2251C63.8155 13.8572 63.9789 14.5959 63.9789 15.4411C63.9789 16.2791 63.8155 17.016 63.4888 17.6516C63.1621 18.2837 62.6969 18.7773 62.0932 19.1325C61.4931 19.484 60.7793 19.6598 59.9519 19.6598ZM59.9625 17.902C60.339 17.902 60.6532 17.7955 60.9054 17.5824C61.1575 17.3658 61.3475 17.071 61.4753 16.6982C61.6067 16.3253 61.6724 15.9009 61.6724 15.4251C61.6724 14.9492 61.6067 14.5249 61.4753 14.152C61.3475 13.7791 61.1575 13.4844 60.9054 13.2678C60.6532 13.0511 60.339 12.9428 59.9625 12.9428C59.5826 12.9428 59.263 13.0511 59.0037 13.2678C58.748 13.4844 58.5545 13.7791 58.4231 14.152C58.2953 14.5249 58.2314 14.9492 58.2314 15.4251C58.2314 15.9009 58.2953 16.3253 58.4231 16.6982C58.5545 17.071 58.748 17.3658 59.0037 17.5824C59.263 17.7955 59.5826 17.902 59.9625 17.902ZM65.4544 19.5V11.3182H67.6543V12.7457H67.7395C67.8887 12.2379 68.139 11.8544 68.4906 11.5952C68.8422 11.3324 69.247 11.201 69.7051 11.201C69.8187 11.201 69.9412 11.2081 70.0726 11.2223C70.204 11.2365 70.3194 11.256 70.4189 11.2809V13.2944C70.3123 13.2624 70.165 13.234 69.9767 13.2092C69.7885 13.1843 69.6163 13.1719 69.46 13.1719C69.1262 13.1719 68.8279 13.2447 68.5652 13.3903C68.3059 13.5323 68.1 13.7312 67.9473 13.9869C67.7981 14.2425 67.7235 14.5373 67.7235 14.8711V19.5H65.4544ZM73.242 22.5682C72.9544 22.5682 72.6845 22.5451 72.4324 22.4989C72.1838 22.4563 71.9778 22.4013 71.8145 22.3338L72.3258 20.6399C72.5922 20.7216 72.8319 20.766 73.0449 20.7731C73.2615 20.7802 73.448 20.7305 73.6042 20.6239C73.764 20.5174 73.8936 20.3363 73.9931 20.0806L74.1262 19.7344L71.1912 11.3182H73.5776L75.2715 17.3267H75.3567L77.0666 11.3182H79.4689L76.2889 20.3842C76.1362 20.8246 75.9284 21.2081 75.6657 21.5348C75.4064 21.8651 75.0779 22.119 74.6802 22.2965C74.2825 22.4776 73.8031 22.5682 73.242 22.5682Z" fill="#C9CED6"/>
<path d="M151.375 9.21875V19.5312H150.438V9.21875H151.375ZM150.438 7.8125C149.646 7.8125 149.031 8.45703 149.031 9.21875V19.5312C149.031 20.3223 149.646 20.9375 150.438 20.9375H151.375C152.137 20.9375 152.781 20.3223 152.781 19.5312V9.21875C152.781 8.45703 152.137 7.8125 151.375 7.8125H150.438ZM146.688 14.8438V19.5312H145.75V14.8438H146.688ZM145.75 13.4375C144.959 13.4375 144.344 14.082 144.344 14.8438V19.5312C144.344 20.3223 144.959 20.9375 145.75 20.9375H146.688C147.449 20.9375 148.094 20.3223 148.094 19.5312V14.8438C148.094 14.082 147.449 13.4375 146.688 13.4375H145.75ZM155.125 11.0938H156.062V19.5312H155.125V11.0938ZM153.719 11.0938V19.5312C153.719 20.3223 154.334 20.9375 155.125 20.9375H156.062C156.824 20.9375 157.469 20.3223 157.469 19.5312V11.0938C157.469 10.332 156.824 9.6875 156.062 9.6875H155.125C154.334 9.6875 153.719 10.332 153.719 11.0938Z" fill="#C9CED6"/>
<path d="M174.772 11.7283C174.73 11.2987 174.547 10.9648 174.224 10.7269C173.901 10.489 173.462 10.37 172.908 10.37C172.532 10.37 172.214 10.4233 171.955 10.5298C171.695 10.6328 171.496 10.7766 171.358 10.9613C171.223 11.146 171.156 11.3555 171.156 11.5898C171.148 11.7852 171.189 11.9556 171.278 12.1012C171.37 12.2468 171.496 12.3729 171.656 12.4794C171.816 12.5824 172.001 12.6729 172.21 12.7511C172.42 12.8256 172.643 12.8896 172.881 12.9428L173.862 13.1772C174.337 13.2837 174.774 13.4258 175.172 13.6033C175.57 13.7809 175.914 13.9993 176.205 14.2585C176.496 14.5178 176.722 14.8232 176.882 15.1747C177.045 15.5263 177.129 15.9293 177.132 16.3839C177.129 17.0515 176.958 17.6303 176.621 18.1204C176.287 18.6069 175.804 18.9851 175.172 19.255C174.543 19.5213 173.785 19.6545 172.897 19.6545C172.017 19.6545 171.25 19.5195 170.596 19.2496C169.946 18.9798 169.439 18.5803 169.073 18.0511C168.711 17.5185 168.521 16.8597 168.503 16.0749H170.735C170.76 16.4407 170.864 16.7461 171.049 16.9911C171.237 17.2326 171.488 17.4155 171.8 17.5398C172.116 17.6605 172.473 17.7209 172.871 17.7209C173.261 17.7209 173.6 17.6641 173.888 17.5504C174.179 17.4368 174.405 17.2788 174.565 17.0763C174.724 16.8739 174.804 16.6413 174.804 16.3786C174.804 16.1335 174.732 15.9276 174.586 15.7607C174.444 15.5937 174.234 15.4517 173.957 15.3345C173.684 15.2173 173.348 15.1108 172.951 15.0149L171.763 14.7166C170.843 14.4929 170.117 14.1431 169.584 13.6673C169.051 13.1914 168.787 12.5504 168.79 11.7443C168.787 11.0838 168.963 10.5067 169.318 10.0131C169.676 9.51953 170.168 9.13423 170.793 8.85724C171.418 8.58026 172.129 8.44176 172.924 8.44176C173.734 8.44176 174.44 8.58026 175.044 8.85724C175.651 9.13423 176.124 9.51953 176.461 10.0131C176.798 10.5067 176.972 11.0785 176.983 11.7283H174.772ZM182.993 11.3182V13.0227H178.066V11.3182H182.993ZM179.184 9.35795H181.453V16.9858C181.453 17.1953 181.485 17.3587 181.549 17.4759C181.613 17.5895 181.702 17.6694 181.816 17.7156C181.933 17.7617 182.068 17.7848 182.22 17.7848C182.327 17.7848 182.434 17.7759 182.54 17.7582C182.647 17.7369 182.728 17.7209 182.785 17.7102L183.142 19.3988C183.028 19.4343 182.869 19.4751 182.663 19.5213C182.457 19.571 182.206 19.6012 181.911 19.6119C181.365 19.6332 180.885 19.5604 180.473 19.3935C180.065 19.2266 179.747 18.9673 179.52 18.6158C179.293 18.2642 179.181 17.8203 179.184 17.2841V9.35795ZM186.804 19.6545C186.282 19.6545 185.817 19.5639 185.408 19.3828C185 19.1982 184.677 18.9265 184.439 18.5678C184.205 18.2056 184.087 17.7546 184.087 17.2148C184.087 16.7603 184.171 16.3786 184.338 16.0696C184.505 15.7607 184.732 15.5121 185.02 15.3239C185.307 15.1357 185.634 14.9936 186 14.8977C186.369 14.8018 186.756 14.7344 187.161 14.6953C187.637 14.6456 188.02 14.5994 188.312 14.5568C188.603 14.5107 188.814 14.4432 188.945 14.3544C189.077 14.2656 189.142 14.1342 189.142 13.9602V13.9283C189.142 13.5909 189.036 13.3299 188.823 13.1452C188.613 12.9606 188.315 12.8683 187.928 12.8683C187.52 12.8683 187.195 12.9588 186.953 13.1399C186.712 13.3175 186.552 13.5412 186.474 13.8111L184.375 13.6406C184.482 13.1435 184.691 12.7138 185.004 12.3516C185.316 11.9858 185.719 11.7053 186.213 11.5099C186.71 11.3111 187.285 11.2116 187.939 11.2116C188.393 11.2116 188.828 11.2649 189.244 11.3714C189.663 11.478 190.034 11.6431 190.357 11.8668C190.684 12.0906 190.941 12.3782 191.129 12.7298C191.318 13.0778 191.412 13.495 191.412 13.9815V19.5H189.26V18.3654H189.196C189.064 18.6211 188.889 18.8466 188.668 19.0419C188.448 19.2337 188.184 19.3846 187.875 19.4947C187.566 19.6012 187.209 19.6545 186.804 19.6545ZM187.454 18.0884C187.788 18.0884 188.082 18.0227 188.338 17.8913C188.594 17.7564 188.794 17.5753 188.94 17.348C189.086 17.1207 189.158 16.8633 189.158 16.5756V15.7074C189.087 15.7536 188.99 15.7962 188.866 15.8352C188.745 15.8707 188.608 15.9045 188.455 15.9364C188.303 15.9648 188.15 15.9915 187.997 16.0163C187.845 16.0376 187.706 16.0572 187.582 16.0749C187.315 16.114 187.083 16.1761 186.884 16.2614C186.685 16.3466 186.531 16.462 186.421 16.6076C186.31 16.7496 186.255 16.9272 186.255 17.1403C186.255 17.4492 186.367 17.6854 186.591 17.8487C186.818 18.0085 187.106 18.0884 187.454 18.0884ZM197.524 11.3182V13.0227H192.597V11.3182H197.524ZM193.715 9.35795H195.985V16.9858C195.985 17.1953 196.017 17.3587 196.081 17.4759C196.144 17.5895 196.233 17.6694 196.347 17.7156C196.464 17.7617 196.599 17.7848 196.752 17.7848C196.858 17.7848 196.965 17.7759 197.071 17.7582C197.178 17.7369 197.259 17.7209 197.316 17.7102L197.673 19.3988C197.56 19.4343 197.4 19.4751 197.194 19.5213C196.988 19.571 196.737 19.6012 196.443 19.6119C195.896 19.6332 195.416 19.5604 195.005 19.3935C194.596 19.2266 194.278 18.9673 194.051 18.6158C193.824 18.2642 193.712 17.8203 193.715 17.2841V9.35795ZM199.002 19.5V11.3182H201.271V19.5H199.002ZM200.142 10.2635C199.805 10.2635 199.515 10.1516 199.274 9.92791C199.036 9.70064 198.917 9.42898 198.917 9.11293C198.917 8.80043 199.036 8.53232 199.274 8.30859C199.515 8.08132 199.805 7.96768 200.142 7.96768C200.479 7.96768 200.767 8.08132 201.005 8.30859C201.247 8.53232 201.367 8.80043 201.367 9.11293C201.367 9.42898 201.247 9.70064 201.005 9.92791C200.767 10.1516 200.479 10.2635 200.142 10.2635ZM209.897 13.6513L207.819 13.7791C207.784 13.6016 207.707 13.4418 207.59 13.2997C207.473 13.1541 207.319 13.0387 207.127 12.9535C206.939 12.8647 206.713 12.8203 206.45 12.8203C206.099 12.8203 205.802 12.8949 205.561 13.044C205.319 13.1896 205.199 13.3849 205.199 13.63C205.199 13.8253 205.277 13.9904 205.433 14.1254C205.589 14.2603 205.857 14.3686 206.237 14.4503L207.718 14.7486C208.513 14.9119 209.107 15.1747 209.497 15.5369C209.888 15.8991 210.083 16.375 210.083 16.9645C210.083 17.5007 209.925 17.9712 209.609 18.3761C209.297 18.7809 208.867 19.0969 208.32 19.3242C207.777 19.5479 207.15 19.6598 206.44 19.6598C205.357 19.6598 204.494 19.4343 203.851 18.9833C203.212 18.5288 202.837 17.9109 202.727 17.1296L204.959 17.0124C205.026 17.3427 205.19 17.5948 205.449 17.7688C205.708 17.9393 206.04 18.0245 206.445 18.0245C206.843 18.0245 207.162 17.9482 207.404 17.7955C207.649 17.6392 207.773 17.4386 207.777 17.1935C207.773 16.9876 207.686 16.8189 207.516 16.6875C207.345 16.5526 207.082 16.4496 206.727 16.3786L205.31 16.0962C204.511 15.9364 203.917 15.6594 203.526 15.2653C203.139 14.8711 202.945 14.3686 202.945 13.7578C202.945 13.2322 203.087 12.7795 203.371 12.3995C203.659 12.0195 204.062 11.7266 204.581 11.5206C205.103 11.3146 205.713 11.2116 206.413 11.2116C207.446 11.2116 208.26 11.43 208.853 11.8668C209.449 12.3036 209.797 12.8984 209.897 13.6513ZM215.864 11.3182V13.0227H210.937V11.3182H215.864ZM212.055 9.35795H214.324V16.9858C214.324 17.1953 214.356 17.3587 214.42 17.4759C214.484 17.5895 214.573 17.6694 214.687 17.7156C214.804 17.7617 214.939 17.7848 215.092 17.7848C215.198 17.7848 215.305 17.7759 215.411 17.7582C215.518 17.7369 215.599 17.7209 215.656 17.7102L216.013 19.3988C215.899 19.4343 215.74 19.4751 215.534 19.5213C215.328 19.571 215.077 19.6012 214.783 19.6119C214.236 19.6332 213.756 19.5604 213.344 19.3935C212.936 19.2266 212.618 18.9673 212.391 18.6158C212.164 18.2642 212.052 17.8203 212.055 17.2841V9.35795ZM217.342 19.5V11.3182H219.611V19.5H217.342ZM218.482 10.2635C218.145 10.2635 217.855 10.1516 217.614 9.92791C217.376 9.70064 217.257 9.42898 217.257 9.11293C217.257 8.80043 217.376 8.53232 217.614 8.30859C217.855 8.08132 218.145 7.96768 218.482 7.96768C218.819 7.96768 219.107 8.08132 219.345 8.30859C219.586 8.53232 219.707 8.80043 219.707 9.11293C219.707 9.42898 219.586 9.70064 219.345 9.92791C219.107 10.1516 218.819 10.2635 218.482 10.2635ZM225.126 19.6598C224.288 19.6598 223.567 19.4822 222.963 19.1271C222.363 18.7685 221.901 18.2713 221.578 17.6357C221.259 17 221.099 16.2685 221.099 15.4411C221.099 14.603 221.26 13.8679 221.583 13.2358C221.91 12.6001 222.374 12.1048 222.974 11.7496C223.574 11.391 224.288 11.2116 225.115 11.2116C225.829 11.2116 226.454 11.3413 226.99 11.6005C227.526 11.8597 227.951 12.2237 228.263 12.6925C228.576 13.1612 228.748 13.7116 228.78 14.3438H226.638C226.578 13.9354 226.418 13.6069 226.159 13.3583C225.903 13.1062 225.568 12.9801 225.152 12.9801C224.801 12.9801 224.494 13.076 224.231 13.2678C223.972 13.456 223.769 13.7312 223.624 14.0934C223.478 14.4556 223.405 14.8942 223.405 15.4091C223.405 15.9311 223.476 16.375 223.618 16.7408C223.764 17.1065 223.968 17.3853 224.231 17.5771C224.494 17.7688 224.801 17.8647 225.152 17.8647C225.412 17.8647 225.644 17.8114 225.85 17.7049C226.06 17.5984 226.232 17.4439 226.367 17.2415C226.505 17.0355 226.596 16.7887 226.638 16.5011H228.78C228.744 17.1261 228.574 17.6765 228.268 18.1523C227.967 18.6246 227.549 18.994 227.017 19.2603C226.484 19.5266 225.854 19.6598 225.126 19.6598ZM237.04 13.6513L234.963 13.7791C234.927 13.6016 234.851 13.4418 234.734 13.2997C234.617 13.1541 234.462 13.0387 234.27 12.9535C234.082 12.8647 233.857 12.8203 233.594 12.8203C233.242 12.8203 232.946 12.8949 232.704 13.044C232.463 13.1896 232.342 13.3849 232.342 13.63C232.342 13.8253 232.42 13.9904 232.576 14.1254C232.733 14.2603 233.001 14.3686 233.381 14.4503L234.862 14.7486C235.657 14.9119 236.25 15.1747 236.641 15.5369C237.031 15.8991 237.227 16.375 237.227 16.9645C237.227 17.5007 237.069 17.9712 236.753 18.3761C236.44 18.7809 236.01 19.0969 235.464 19.3242C234.92 19.5479 234.293 19.6598 233.583 19.6598C232.5 19.6598 231.637 19.4343 230.994 18.9833C230.355 18.5288 229.981 17.9109 229.87 17.1296L232.102 17.0124C232.17 17.3427 232.333 17.5948 232.592 17.7688C232.852 17.9393 233.184 18.0245 233.589 18.0245C233.986 18.0245 234.306 17.9482 234.547 17.7955C234.792 17.6392 234.917 17.4386 234.92 17.1935C234.917 16.9876 234.83 16.8189 234.659 16.6875C234.489 16.5526 234.226 16.4496 233.871 16.3786L232.454 16.0962C231.655 15.9364 231.06 15.6594 230.669 15.2653C230.282 14.8711 230.089 14.3686 230.089 13.7578C230.089 13.2322 230.231 12.7795 230.515 12.3995C230.803 12.0195 231.206 11.7266 231.724 11.5206C232.246 11.3146 232.857 11.2116 233.557 11.2116C234.59 11.2116 235.403 11.43 235.996 11.8668C236.593 12.3036 236.941 12.8984 237.04 13.6513Z" fill="#C9CED6"/>
<path d="M309.406 6.875C309.904 6.875 310.373 6.93359 310.842 7.02148C311.076 7.08008 311.486 7.19727 311.721 7.60742C311.779 7.72461 311.809 7.8418 311.838 7.95898L312.131 9.10156C312.16 9.24805 312.453 9.42383 312.629 9.36523L313.742 9.04297C313.859 9.01367 313.977 8.98438 314.094 8.98438C314.562 8.98438 314.885 9.27734 315.031 9.45312C315.676 10.1855 316.174 11.0352 316.496 11.9727C316.584 12.207 316.672 12.6172 316.408 12.998C316.35 13.1152 316.262 13.2031 316.174 13.291L315.354 14.1113C315.207 14.2285 315.207 14.5508 315.354 14.668L316.174 15.4883C316.262 15.5762 316.35 15.6641 316.408 15.7812C316.643 16.1621 316.555 16.5723 316.496 16.8066C316.174 17.7441 315.676 18.5938 315.031 19.3262C314.885 19.502 314.562 19.7949 314.094 19.7949C313.977 19.7949 313.859 19.7656 313.742 19.7363L312.629 19.3848C312.453 19.3555 312.16 19.502 312.131 19.6777L311.838 20.8203C311.809 20.9375 311.779 21.0547 311.721 21.1719C311.486 21.582 311.076 21.6992 310.842 21.7578C310.373 21.8457 309.904 21.875 309.406 21.875C308.908 21.875 308.41 21.8457 307.941 21.7578C307.707 21.6992 307.297 21.582 307.062 21.1719C307.004 21.0547 306.975 20.9375 306.945 20.8203L306.652 19.6777C306.623 19.502 306.33 19.3555 306.184 19.3848L305.07 19.7363C304.953 19.7656 304.807 19.7656 304.689 19.7949C304.221 19.7949 303.898 19.502 303.752 19.3262C303.107 18.5938 302.609 17.7441 302.287 16.8066C302.229 16.5723 302.141 16.1621 302.375 15.752C302.434 15.6641 302.521 15.5469 302.609 15.459L303.459 14.668C303.576 14.5508 303.576 14.2285 303.459 14.1113L302.609 13.291C302.521 13.2031 302.434 13.1152 302.375 12.998C302.141 12.6172 302.229 12.207 302.287 11.9727C302.609 11.0352 303.107 10.1855 303.752 9.45312C303.898 9.27734 304.221 8.98438 304.689 8.98438C304.807 8.98438 304.953 9.01367 305.07 9.04297L306.184 9.36523C306.33 9.42383 306.623 9.24805 306.652 9.10156L306.945 7.95898C306.975 7.8418 307.004 7.72461 307.062 7.60742C307.297 7.19727 307.707 7.08008 307.941 7.02148C308.41 6.93359 308.908 6.875 309.406 6.875ZM308.293 8.39844L308.029 9.42383C307.795 10.3613 306.711 11.0059 305.773 10.7422L304.748 10.4199C304.279 11.0059 303.898 11.6504 303.635 12.3535L304.426 13.0859C305.129 13.7598 305.129 15.0195 304.426 15.6934L303.635 16.4258C303.898 17.1289 304.279 17.7734 304.748 18.3594L305.773 18.0371C306.711 17.7734 307.795 18.418 308.029 19.3555L308.293 20.3809C308.996 20.5273 309.787 20.5273 310.52 20.3809L310.754 19.3555C310.988 18.418 312.072 17.7734 313.01 18.0371L314.035 18.3594C314.504 17.7734 314.885 17.1289 315.148 16.4258L314.387 15.6934C313.684 15.0195 313.684 13.7598 314.387 13.0859L315.148 12.3535C314.885 11.6504 314.504 11.0059 314.035 10.4199L313.01 10.7422C312.102 11.0059 310.988 10.3613 310.754 9.42383L310.52 8.39844C309.787 8.25195 308.996 8.25195 308.293 8.39844ZM308 14.375C308 14.9023 308.264 15.3418 308.703 15.6055C309.113 15.8691 309.67 15.8691 310.109 15.6055C310.52 15.3418 310.812 14.9023 310.812 14.375C310.812 13.877 310.52 13.4375 310.109 13.1738C309.67 12.9102 309.113 12.9102 308.703 13.1738C308.264 13.4375 308 13.877 308 14.375ZM309.406 17.1875C308.381 17.1875 307.473 16.6602 306.945 15.7812C306.447 14.9316 306.447 13.8477 306.945 12.9688C307.473 12.1191 308.381 11.5625 309.406 11.5625C310.402 11.5625 311.311 12.1191 311.838 12.9688C312.336 13.8477 312.336 14.9316 311.838 15.7812C311.311 16.6602 310.402 17.1875 309.406 17.1875Z" fill="#C9CED6"/>
<path d="M333.772 11.7283C333.73 11.2987 333.547 10.9648 333.224 10.7269C332.901 10.489 332.462 10.37 331.908 10.37C331.532 10.37 331.214 10.4233 330.955 10.5298C330.695 10.6328 330.496 10.7766 330.358 10.9613C330.223 11.146 330.156 11.3555 330.156 11.5898C330.148 11.7852 330.189 11.9556 330.278 12.1012C330.37 12.2468 330.496 12.3729 330.656 12.4794C330.816 12.5824 331.001 12.6729 331.21 12.7511C331.42 12.8256 331.643 12.8896 331.881 12.9428L332.862 13.1772C333.337 13.2837 333.774 13.4258 334.172 13.6033C334.57 13.7809 334.914 13.9993 335.205 14.2585C335.496 14.5178 335.722 14.8232 335.882 15.1747C336.045 15.5263 336.129 15.9293 336.132 16.3839C336.129 17.0515 335.958 17.6303 335.621 18.1204C335.287 18.6069 334.804 18.9851 334.172 19.255C333.543 19.5213 332.785 19.6545 331.897 19.6545C331.017 19.6545 330.25 19.5195 329.596 19.2496C328.946 18.9798 328.439 18.5803 328.073 18.0511C327.711 17.5185 327.521 16.8597 327.503 16.0749H329.735C329.76 16.4407 329.864 16.7461 330.049 16.9911C330.237 17.2326 330.488 17.4155 330.8 17.5398C331.116 17.6605 331.473 17.7209 331.871 17.7209C332.261 17.7209 332.6 17.6641 332.888 17.5504C333.179 17.4368 333.405 17.2788 333.565 17.0763C333.724 16.8739 333.804 16.6413 333.804 16.3786C333.804 16.1335 333.732 15.9276 333.586 15.7607C333.444 15.5937 333.234 15.4517 332.957 15.3345C332.684 15.2173 332.348 15.1108 331.951 15.0149L330.763 14.7166C329.843 14.4929 329.117 14.1431 328.584 13.6673C328.051 13.1914 327.787 12.5504 327.79 11.7443C327.787 11.0838 327.963 10.5067 328.318 10.0131C328.676 9.51953 329.168 9.13423 329.793 8.85724C330.418 8.58026 331.129 8.44176 331.924 8.44176C332.734 8.44176 333.44 8.58026 334.044 8.85724C334.651 9.13423 335.124 9.51953 335.461 10.0131C335.798 10.5067 335.972 11.0785 335.983 11.7283H333.772ZM341.37 19.6598C340.528 19.6598 339.804 19.4893 339.196 19.1484C338.593 18.804 338.127 18.3175 337.801 17.6889C337.474 17.0568 337.311 16.3093 337.311 15.4464C337.311 14.6048 337.474 13.8661 337.801 13.2305C338.127 12.5948 338.587 12.0994 339.18 11.7443C339.777 11.3892 340.476 11.2116 341.279 11.2116C341.819 11.2116 342.321 11.2987 342.786 11.4727C343.255 11.6431 343.664 11.9006 344.012 12.245C344.363 12.5895 344.637 13.0227 344.832 13.5447C345.027 14.0632 345.125 14.6705 345.125 15.3665V15.9897H338.216V14.5835H342.989C342.989 14.2567 342.918 13.9673 342.776 13.7152C342.634 13.4631 342.437 13.266 342.185 13.1239C341.936 12.9783 341.647 12.9055 341.316 12.9055C340.972 12.9055 340.666 12.9854 340.4 13.1452C340.137 13.3015 339.931 13.5128 339.782 13.7791C339.633 14.0419 339.557 14.3349 339.553 14.658V15.995C339.553 16.3999 339.628 16.7496 339.777 17.0444C339.93 17.3391 340.144 17.5664 340.421 17.7262C340.698 17.886 341.027 17.9659 341.407 17.9659C341.659 17.9659 341.89 17.9304 342.099 17.8594C342.309 17.7884 342.488 17.6818 342.637 17.5398C342.786 17.3977 342.9 17.2237 342.978 17.0178L345.077 17.1562C344.97 17.6605 344.752 18.1009 344.422 18.4773C344.095 18.8501 343.672 19.1413 343.154 19.3509C342.639 19.5568 342.044 19.6598 341.37 19.6598ZM350.958 11.3182V13.0227H346.03V11.3182H350.958ZM347.149 9.35795H349.418V16.9858C349.418 17.1953 349.45 17.3587 349.514 17.4759C349.578 17.5895 349.667 17.6694 349.78 17.7156C349.898 17.7617 350.033 17.7848 350.185 17.7848C350.292 17.7848 350.398 17.7759 350.505 17.7582C350.611 17.7369 350.693 17.7209 350.75 17.7102L351.107 19.3988C350.993 19.4343 350.833 19.4751 350.627 19.5213C350.421 19.571 350.171 19.6012 349.876 19.6119C349.329 19.6332 348.85 19.5604 348.438 19.3935C348.03 19.2266 347.712 18.9673 347.485 18.6158C347.257 18.2642 347.146 17.8203 347.149 17.2841V9.35795ZM356.788 11.3182V13.0227H351.861V11.3182H356.788ZM352.979 9.35795H355.248V16.9858C355.248 17.1953 355.28 17.3587 355.344 17.4759C355.408 17.5895 355.497 17.6694 355.611 17.7156C355.728 17.7617 355.863 17.7848 356.015 17.7848C356.122 17.7848 356.228 17.7759 356.335 17.7582C356.441 17.7369 356.523 17.7209 356.58 17.7102L356.937 19.3988C356.823 19.4343 356.663 19.4751 356.457 19.5213C356.252 19.571 356.001 19.6012 355.706 19.6119C355.16 19.6332 354.68 19.5604 354.268 19.3935C353.86 19.2266 353.542 18.9673 353.315 18.6158C353.087 18.2642 352.976 17.8203 352.979 17.2841V9.35795ZM358.266 19.5V11.3182H360.535V19.5H358.266ZM359.406 10.2635C359.068 10.2635 358.779 10.1516 358.538 9.92791C358.3 9.70064 358.181 9.42898 358.181 9.11293C358.181 8.80043 358.3 8.53232 358.538 8.30859C358.779 8.08132 359.068 7.96768 359.406 7.96768C359.743 7.96768 360.031 8.08132 360.269 8.30859C360.51 8.53232 360.631 8.80043 360.631 9.11293C360.631 9.42898 360.51 9.70064 360.269 9.92791C360.031 10.1516 359.743 10.2635 359.406 10.2635ZM364.622 14.7699V19.5H362.353V11.3182H364.515V12.7617H364.611C364.792 12.2859 365.096 11.9094 365.522 11.6325C365.948 11.3519 366.465 11.2116 367.072 11.2116C367.64 11.2116 368.136 11.3359 368.558 11.5845C368.981 11.8331 369.309 12.1882 369.544 12.6499C369.778 13.108 369.895 13.6548 369.895 14.2905V19.5H367.626V14.6953C367.63 14.1946 367.502 13.804 367.243 13.5234C366.983 13.2393 366.627 13.0973 366.172 13.0973C365.867 13.0973 365.597 13.163 365.362 13.2944C365.132 13.4258 364.95 13.6175 364.819 13.8697C364.691 14.1183 364.626 14.4183 364.622 14.7699ZM375.37 22.7386C374.635 22.7386 374.005 22.6374 373.479 22.435C372.957 22.2362 372.541 21.9645 372.233 21.62C371.924 21.2756 371.723 20.8885 371.631 20.4588L373.729 20.1765C373.793 20.3398 373.894 20.4925 374.033 20.6346C374.171 20.7766 374.354 20.8903 374.582 20.9755C374.812 21.0643 375.093 21.1087 375.423 21.1087C375.917 21.1087 376.323 20.9879 376.643 20.7464C376.966 20.5085 377.128 20.109 377.128 19.5479V18.0511H377.032C376.932 18.2784 376.783 18.4933 376.584 18.6957C376.386 18.8981 376.13 19.0632 375.817 19.1911C375.505 19.3189 375.132 19.3828 374.699 19.3828C374.084 19.3828 373.525 19.2408 373.021 18.9567C372.52 18.669 372.121 18.2305 371.822 17.641C371.528 17.0479 371.38 16.2987 371.38 15.3931C371.38 14.4663 371.531 13.6921 371.833 13.0707C372.135 12.4492 372.536 11.984 373.037 11.6751C373.541 11.3661 374.093 11.2116 374.693 11.2116C375.152 11.2116 375.535 11.2898 375.844 11.446C376.153 11.5987 376.402 11.7905 376.59 12.0213C376.782 12.2486 376.929 12.4723 377.032 12.6925H377.117V11.3182H379.37V19.5799C379.37 20.2759 379.2 20.8583 378.859 21.3271C378.518 21.7958 378.046 22.1474 377.442 22.3817C376.842 22.6197 376.151 22.7386 375.37 22.7386ZM375.418 17.6783C375.784 17.6783 376.093 17.5877 376.345 17.4066C376.6 17.2219 376.796 16.9592 376.931 16.6183C377.069 16.2738 377.138 15.8619 377.138 15.3825C377.138 14.9031 377.071 14.4876 376.936 14.136C376.801 13.7809 376.606 13.5057 376.35 13.3104C376.094 13.1151 375.784 13.0174 375.418 13.0174C375.045 13.0174 374.731 13.1186 374.475 13.321C374.219 13.5199 374.026 13.7969 373.894 14.152C373.763 14.5071 373.697 14.9173 373.697 15.3825C373.697 15.8548 373.763 16.2631 373.894 16.6076C374.029 16.9485 374.223 17.2131 374.475 17.4013C374.731 17.5859 375.045 17.6783 375.418 17.6783ZM387.984 13.6513L385.906 13.7791C385.871 13.6016 385.794 13.4418 385.677 13.2997C385.56 13.1541 385.405 13.0387 385.214 12.9535C385.025 12.8647 384.8 12.8203 384.537 12.8203C384.186 12.8203 383.889 12.8949 383.648 13.044C383.406 13.1896 383.285 13.3849 383.285 13.63C383.285 13.8253 383.364 13.9904 383.52 14.1254C383.676 14.2603 383.944 14.3686 384.324 14.4503L385.805 14.7486C386.6 14.9119 387.193 15.1747 387.584 15.5369C387.975 15.8991 388.17 16.375 388.17 16.9645C388.17 17.5007 388.012 17.9712 387.696 18.3761C387.383 18.7809 386.954 19.0969 386.407 19.3242C385.864 19.5479 385.237 19.6598 384.527 19.6598C383.443 19.6598 382.581 19.4343 381.938 18.9833C381.299 18.5288 380.924 17.9109 380.814 17.1296L383.046 17.0124C383.113 17.3427 383.277 17.5948 383.536 17.7688C383.795 17.9393 384.127 18.0245 384.532 18.0245C384.93 18.0245 385.249 17.9482 385.491 17.7955C385.736 17.6392 385.86 17.4386 385.864 17.1935C385.86 16.9876 385.773 16.8189 385.603 16.6875C385.432 16.5526 385.169 16.4496 384.814 16.3786L383.397 16.0962C382.598 15.9364 382.003 15.6594 381.613 15.2653C381.226 14.8711 381.032 14.3686 381.032 13.7578C381.032 13.2322 381.174 12.7795 381.458 12.3995C381.746 12.0195 382.149 11.7266 382.668 11.5206C383.19 11.3146 383.8 11.2116 384.5 11.2116C385.533 11.2116 386.347 11.43 386.94 11.8668C387.536 12.3036 387.884 12.8984 387.984 13.6513Z" fill="#C9CED6"/>
</svg>
